<?xml version="1.0" standalone="no"?>
<!DOCTYPE svg PUBLIC "-//W3C//DTD SVG 20010904//EN"
 "http://www.w3.org/TR/2001/REC-SVG-20010904/DTD/svg10.dtd">
<svg version="1.0" xmlns="http://www.w3.org/2000/svg"
 width="1280.000000pt" height="1280.000000pt" viewBox="0 0 1280.000000 1280.000000"
 preserveAspectRatio="xMidYMid meet">
<metadata>
Created by potrace 1.14, written by Peter Selinger 2001-2017
</metadata>
<g transform="translate(0.000000,1280.000000) scale(0.100000,-0.100000)"
fill="#000000" stroke="none">
<path d="M5915 10874 c-550 -63 -1057 -214 -1545 -461 -113 -57 -213 -110
-223 -117 -16 -12 -17 -44 -15 -459 l3 -446 115 80 c299 210 637 378 989 493
77 25 145 46 150 46 8 0 11 -1069 11 -3610 0 -2541 -3 -3610 -11 -3610 -5 0
-73 21 -150 46 -1048 342 -1890 1124 -2308 2143 -170 415 -281 947 -281 1354
l0 67 -377 0 -376 0 7 -169 c53 -1316 667 -2532 1691 -3349 587 -468 1315
-794 2045 -916 168 -28 399 -56 468 -56 l42 0 0 4490 0 4490 -57 -1 c-32 -1
-112 -7 -178 -15z"/>
<path d="M6650 6400 l0 -4490 43 0 c68 0 299 28 467 56 1054 176 2058 761
2728 1592 97 120 192 247 192 255 0 4 -214 7 -476 7 l-476 0 -111 -106 c-432
-412 -909 -700 -1456 -878 -77 -25 -145 -46 -150 -46 -8 0 -11 1069 -11 3610
0 2541 3 3610 11 3610 5 0 73 -21 150 -46 550 -179 1026 -468 1461 -883 l116
-111 477 2 477 3 -62 85 c-632 854 -1517 1448 -2540 1704 -248 63 -648 126
-797 126 l-43 0 0 -4490z"/>
</g>
</svg>
